<?xml version="1.0" encoding="utf-8"?>
<!-- Generator: Adobe Illustrator 16.0.0, SVG Export Plug-In . SVG Version: 6.00 Build 0)  -->
<!DOCTYPE svg PUBLIC "-//W3C//DTD SVG 1.1//EN" "http://www.w3.org/Graphics/SVG/1.1/DTD/svg11.dtd">
<svg version="1.1" xmlns="http://www.w3.org/2000/svg" xmlns:xlink="http://www.w3.org/1999/xlink" x="0px" y="0px" width="270px"
	 height="100px" viewBox="171 346 270 100" enable-background="new 171 346 270 100" xml:space="preserve">
<g id="Layer_2" display="none">
	<rect x="0" y="272.5" display="inline" fill="#D6000D" width="611.717" height="314"/>
</g>
<g id="Layer_1">
	<title>QUB -logo -web</title>
	<desc>Created with Sketch.</desc>
	<g id="Style-guide">
		<g id="_x31_.-Logos" transform="translate(-64.000000, -171.000000)">
			<g id="QUB--logo--web" transform="translate(64.000000, 171.000000)">
				<g id="Group-3" transform="translate(0.000000, 0.132099)">
					<g id="Clip-2">
					</g>
					<path id="Fill-1" fill="#FFFFFF" d="M257.454,397.522v-50.639H172v50.737c0,25.915,19.187,47.08,42.727,47.08
						C238.266,444.701,257.454,423.536,257.454,397.522"/>
				</g>
				<path id="Fill-4" fill="#D6000D" d="M187.429,426.603l27.397-27.793l27.199,27.99c2.769-3.164,5.143-6.923,6.923-10.979
					l-25.22-25.814l29.176-29.473v-8.704h-8.605l-29.473,29.77l-29.375-29.77h-8.703v8.506l29.375,29.671l-25.518,25.814
					C182.385,419.778,184.66,423.438,187.429,426.603"/>
				<path id="Fill-6" fill="#D6000D" d="M219.672,413.547l-0.89,1.286l-0.198-3.265c0.396-0.097,0.692-0.197,0.989-0.296v2.274
					H219.672z M214.826,413.35c0.296-0.099,0.593-0.298,0.89-0.396c0.099-0.099,0.197-0.099,0.395-0.197l-0.098,6.133l-0.891,1.285
					L214.826,413.35z M214.727,420.668l-0.89,1.385l-0.198-8.209c0.396-0.099,0.791-0.297,1.286-0.494L214.727,420.668z
					 M213.441,422.548l-0.89,1.187l-0.296-9.593c0.396-0.101,0.791-0.199,1.187-0.298V422.548z M217.299,417.009l-0.89,1.285
					l-0.198-5.638c0.396-0.197,0.791-0.396,1.187-0.593L217.299,417.009z M217.398,412.063c0.396-0.197,0.791-0.396,1.187-0.495
					l-0.099,3.66l-0.89,1.285L217.398,412.063z M223.233,411.568v-0.494c0,0-1.78-2.374-7.813-0.396
					c-4.451,1.483-7.121-1.879-7.121-1.879v2.473c0,0,2.473,2.373,7.418,0.199c4.945-2.079,6.527-0.892,7.22-0.397
					c-0.594-0.494-2.275-1.187-7.22,0.891c-3.956,1.681-6.33,0.494-7.122,0v1.582c0,0,1.187,0.989,3.858,0.494l-0.099,10.089v0.099
					c0.197,0.396,0.297,0.691,0.495,0.99l8.604-12.364c0.296-0.396,0.791-0.594,1.286-0.594c0.198,0,0.396,0,0.495,0.101v-0.495
					V411.568z"/>
				<path id="Fill-8" fill="#D6000D" d="M222.738,412.756c-0.396,0-0.791,0.197-1.088,0.594l0,0l-8.505,12.66
					c0.296,0.593,0.692,1.088,1.087,1.681l7.418-12.659l0,0l-7.022,13.153c0.099,0.1,0.297,0.298,0.396,0.396h1.484l5.637-12.463
					l-0.594-0.396l0.297-0.494c0.198,0.197,0.494,0.296,0.791,0.296c0.693,0,1.384-0.593,1.384-1.383
					C224.024,413.35,223.43,412.756,222.738,412.756"/>
				<path id="Fill-10" fill="#D6000D" d="M208.594,414.142c0,0.493-0.099,0.987-0.099,1.383c0,3.957,1.483,7.616,3.857,10.485
					c-0.296-0.198-0.593-0.396-0.989-0.396c-0.791,0-1.385,0.594-1.385,1.384c0,0.791,0.594,1.385,1.385,1.385
					c0.297,0,0.693-0.099,0.89-0.296c0.296-0.198,0.594-0.396,0.989-0.396c0.495,0,0.792,0.297,1.188,0.692
					c-2.571-2.671-4.154-6.428-4.154-10.385c0-1.089,0.099-2.177,0.396-3.264C209.188,414.734,208.594,414.142,208.594,414.142"/>
				<path id="Fill-12" fill="#D6000D" d="M240.245,381.403c0,0-0.792,0.692-0.693-0.198c0.1-0.891,1.088,0,1.088,0L240.245,381.403z
					 M250.432,379.227c-0.792-0.989-3.759-3.857-9.594-0.593c0,0,6.033-3.561,9-0.495c-4.154-5.836-10.583-1.385-10.583-1.385
					s1.483,0.791,0.792,2.176c0,0-1.088,0.89-1.286,1.483c0,0,0.099,1.781-1.187,2.67c-0.692,0.594-1.583,0.396-1.583,0.396
					c-0.395,1.089,1.286,1.88,1.286,1.88c0.692,0.494,1.484-0.692,1.484-0.692c1.484-0.792,2.868-0.593,2.868-0.593
					c1.88,0.099,2.572-0.891,2.77-1.484l0.099-0.593c0,0.297,0.098,0.494,0.197,0.593c0,0.099,0.099,0.099,0.099,0.198
					c0.692,1.384,2.177,0.296,2.177,0.296c0,2.571,2.175,1.286,2.175,1.286c-0.394,1.682,0.693,1.879,1.287,1.781
					C251.717,383.282,250.63,380.019,250.432,379.227L250.432,379.227z"/>
				<path id="Fill-14" fill="#D6000D" d="M249.937,389.513c-1.087,4.352-3.956,1.187-3.956,1.187l2.77-2.473
					c-0.297-0.89-2.078-3.165-4.946-3.065c-0.692,0.592-1.483,0.89-1.483,0.89c-3.66,1.088-3.858,3.462-3.858,3.462
					c-1.187,3.857,2.572,6.33,2.572,6.33c1.287,0.792,4.254,3.264,4.254,3.264c1.78,1.78,0.692,2.867,0.692,2.867
					c-1.088,1.386-2.374,0.496-2.374,0.496c-0.198-0.199-0.395-0.397-0.395-0.792c0-0.495,0.395-0.89,0.89-0.89
					c0.494,0,0.89,0.395,0.89,0.89v0.099c0.099-0.198,0.099-0.494,0.099-0.692c0-1.187-0.989-2.177-2.176-2.177
					c-0.89,0-1.682,0.595-1.978,1.385c-1.187,4.057,2.275,4.848,2.275,4.848c4.153,0.989,5.143-2.572,5.143-2.572
					c0-0.098,0.099-0.198,0.099-0.297c-0.099-1.187-0.89-2.572-2.869-4.055c-5.439-3.957-4.352-7.517-4.153-8.011v-0.099
					c0,0,0,0,0,0.099c-0.199,0.395-0.693,2.967,4.648,6.823c1.285,0.891,1.978,1.879,2.374,2.77
					c-0.396-1.78-1.188-3.164-1.188-3.164c3.066,0.494,0.89-1.682,0.89-1.682c1.286-0.198,1.979-0.99,1.979-0.99
					C252.014,391.491,249.937,389.513,249.937,389.513"/>
				<path id="Fill-16" fill="#D6000D" d="M183.77,392.975c0,0,3.166-5.934,7.022-4.353
					C190.792,388.721,187.034,387.931,183.77,392.975 M194.551,385.359c0-0.495-0.198-1.484-0.495-1.682
					c-0.396-0.495-1.286-0.396-1.583,0.099c-0.594,0.89-0.296,6.23-0.296,6.824c-3.66-0.296-5.341,3.758-5.341,3.758
					s1.285-4.45,4.747-4.549c0-9.198,0-10.484-0.099-10.978c-0.099-0.594-0.297-1.188-1.188-1.188c-0.791,0-0.989,0.593-0.989,1.088
					v8.11c0.297,0,0.594,0.099,0.89,0.198c-0.494-0.1-1.087-0.1-1.582-0.1v-9.297c0-1.088-0.396-1.385-1.187-1.286
					c-0.692,0-0.989,0.692-0.989,0.989v9.792c-0.297-0.099-0.593-0.099-0.792-0.099v-7.418c0,0,0.099-1.385-1.088-1.286
					c0,0-0.89,0.098-0.89,1.187c0,0.791,0,5.835,0,7.912c-0.989,0.199-1.583,0.297-1.583,0.297c0.296-0.099,0.692-0.297,0.989-0.396
					v-4.253c0,0,0.099-1.384-0.89-1.384c-0.593,0-0.791,0.495-0.791,1.088c0,0,0,0.099,0,0.296l-0.099,6.726l0.099,1.483
					c0,1.781,0.099,3.561,0.593,5.143l0,0c0,0.1,0.099,0.199,0.099,0.396c0.099,0.297,0.296,0.692,0.494,0.988
					c1.188,1.683,3.66,1.979,3.66,1.979c-0.989,0.199-1.78,0-2.374-0.296c0,0.099,0,0.196,0,0.296s0,0.297,0,0.494
					c0,0.198,0,0.396,0,0.595c0,0.493,0,1.087,0.198,1.384c0.396,0,2.275,0,3.659,0c1.78,0,2.77,0,3.066,0
					c0-0.396-0.395-1.482-0.198-2.273c0.099-0.594,0.296-1.09,0.495-1.584c1.583-2.769,3.363-5.538,3.363-7.021
					c0.099-1.484,0.099-4.056,0.099-4.056C194.649,386.545,194.551,386.051,194.551,385.359"/>
				<path id="Fill-18" fill="#D6000D" d="M221.156,356.776c-0.989,0.099-1.682-0.297-1.682-0.297
					c-1.088-0.792-2.077-0.692-2.67-0.495v-0.989c0.594-0.197,1.583-0.197,2.67,0.495c0,0,0.692,0.396,1.682,0.297V356.776z
					 M221.156,360.435c-0.989,0.1-1.682-0.296-1.682-0.296c-1.088-0.792-2.077-0.693-2.67-0.495v-0.989
					c0.594-0.198,1.583-0.198,2.67,0.495c0,0,0.692,0.396,1.682,0.296V360.435z M221.156,363.896
					c-0.989,0.099-1.682-0.296-1.682-0.296c-1.088-0.792-2.077-0.692-2.67-0.494v-0.99c0.594-0.197,1.583-0.197,2.67,0.495
					c0,0,0.692,0.396,1.682,0.297V363.896z M212.848,355.885c-0.594-0.198-1.583-0.198-2.671,0.495c0,0-0.692,0.396-1.681,0.297
					v-0.989c0.989,0.099,1.681-0.297,1.681-0.297c1.088-0.791,2.077-0.692,2.671-0.494V355.885z M212.848,359.545
					c-0.594-0.198-1.583-0.198-2.671,0.495c0,0-0.692,0.395-1.681,0.297v-0.989c0.989,0.099,1.681-0.297,1.681-0.297
					c1.088-0.792,2.077-0.692,2.671-0.495V359.545z M212.848,363.106c-0.594-0.198-1.583-0.198-2.671,0.494
					c0,0-0.692,0.396-1.681,0.296v-0.988c0.989,0.098,1.681-0.297,1.681-0.297c1.088-0.791,2.077-0.692,2.671-0.495V363.106z
					 M221.65,353.611c-1.187,0.099-2.077-0.396-2.077-0.396c-0.692-0.594-1.286-0.792-1.78-0.792
					c-1.583-0.197-2.868,0.594-2.967,1.78c-0.099-1.187-1.385-1.978-2.967-1.78c-0.495,0.099-1.088,0.297-1.781,0.792
					c0,0-0.791,0.494-2.077,0.396l-1.187-0.099v13.154l1.187,0.099c1.187,0.099,2.077-0.396,2.077-0.396
					c0.693-0.494,1.286-0.692,1.781-0.791c1.582-0.198,2.868,0.593,2.967,1.681l0,0l0,0c0,0,0,0,0-0.099c0,0,0,0,0,0.099l0,0l0,0
					c0.099-1.187,1.385-1.879,2.967-1.681c0.494,0.099,1.088,0.297,1.78,0.791c0,0,0.791,0.495,2.077,0.396l1.188-0.099v-13.154
					L221.65,353.611z"/>
				<path id="Fill-20" fill="#D6000D" d="M224.123,353.413v14.539h-7.813c-0.791,0-1.384,0.593-1.483,1.384
					c-0.099-0.791-0.692-1.384-1.484-1.384h-7.813v-14.539c-0.792,0.099-1.286,0.692-1.286,1.483v14.341h9.099
					c0,0,0.297,0.989,1.484,1.088l0,0l0,0l0,0l0,0c1.187-0.099,1.483-1.088,1.483-1.088h9.099v-14.341
					C225.408,354.105,224.914,353.512,224.123,353.413"/>
				<path id="Fill-22" fill="#FFFFFF" d="M214.826,394.557L214.826,394.557L214.826,394.557c2.869,0,4.55,0.593,5.242,0.891l0,0
					c0.099-4.847,1.681-7.122,1.681-7.221l0.099-0.197h-0.099c-0.988-0.494-1.78,0.691-2.077,1.087
					c-0.198-0.197-0.396-0.396-0.593-0.396c-0.396-0.099-0.692,0.396-0.692,0.396l-0.099,0.099c0,0,0.594,0.198,0.594,1.089
					c0,0,0.198,1.186-1.583,0.792c-1.78-0.396-2.077-1.979-2.077-1.979l1.385,0.495v-2.275l-1.286,0.495l0.396-1.583h-0.89l0,0
					h-0.099l0,0h-0.099l0,0h-0.89l0.396,1.583l-1.286-0.495v2.275l1.384-0.495c0,0-0.197,1.583-2.077,1.979
					c-1.781,0.395-1.583-0.792-1.583-0.792c0-0.891,0.594-1.089,0.594-1.089l-0.1-0.099c0,0-0.296-0.396-0.692-0.396
					c-0.198,0-0.396,0.198-0.593,0.396c-0.297-0.396-1.088-1.681-2.078-1.087l-0.198,0.099l0.099,0.197c0,0,1.583,2.374,1.682,7.22
					l0,0C210.276,395.15,211.958,394.557,214.826,394.557L214.826,394.557L214.826,394.557L214.826,394.557z"/>
				<path id="Fill-24" fill="#FFFFFF" d="M213.639,382.393c-2.671,0.396-4.747,2.274-5.638,4.747v0.099
					c0.495-0.197,0.891-0.099,1.286,0.197v-0.099c0.89-2.175,3.066-3.758,5.539-3.758l0,0L213.639,382.393z"/>
				<path id="Fill-26" fill="#FFFFFF" d="M221.65,387.14c-0.89-2.473-3.066-4.352-5.637-4.747l-1.187,1.186l0,0
					c2.473,0,4.648,1.583,5.539,3.758v0.099C220.661,387.14,221.156,387.041,221.65,387.14L221.65,387.14z"/>
				<path id="Fill-28" fill="#FFFFFF" d="M214.925,395.448L214.925,395.448L214.925,395.448L214.925,395.448L214.925,395.448h-0.198
					l0,0l0,0c-2.572,0-4.649,0.494-4.649,1.087c0,0.494,1.583,0.989,3.66,1.088l0.989-0.988l0.989,0.988
					c2.176-0.099,3.857-0.494,3.857-1.088C219.573,395.942,217.496,395.448,214.925,395.448"/>
				<path id="Fill-30" fill="#D6000D" d="M200.584,434.811c0,0.101,0,0.101,0.098,0.101h2.374c0.099,0,0.099-0.101,0.099-0.101
					v-0.494c0-0.098,0-0.098-0.099-0.098h-1.78v-1.088h1.483c0.099,0,0.099,0,0.099-0.1v-0.495c0-0.099-0.099-0.099-0.099-0.099
					h-1.483v-0.988h1.78c0.099,0,0.099-0.099,0.099-0.099v-0.494c0-0.1,0-0.1-0.099-0.1h-2.374c-0.098,0-0.098,0.1-0.098,0.1
					V434.811z"/>
				<path id="Fill-32" fill="#D6000D" d="M204.638,434.515c0.099,0.099,0.594,0.494,1.286,0.494c0.792,0,1.385-0.593,1.385-1.186
					c0-0.792-0.692-1.089-1.187-1.386c-0.495-0.197-0.692-0.396-0.692-0.69c0-0.199,0.198-0.396,0.494-0.396
					c0.297,0,0.792,0.296,0.792,0.296c0.098,0,0.197,0,0.197-0.099l0.198-0.297c0-0.099,0-0.198,0-0.198
					c-0.099-0.098-0.593-0.396-1.187-0.396c-0.89,0-1.286,0.594-1.286,1.188c0,0.691,0.594,1.087,1.088,1.286
					c0.495,0.197,0.792,0.395,0.792,0.692c0,0.296-0.198,0.493-0.495,0.493c-0.396,0-0.891-0.396-0.891-0.396
					c-0.099,0-0.197,0-0.197,0l-0.297,0.396C204.54,434.416,204.638,434.515,204.638,434.515"/>
				<path id="Fill-34" fill="#D6000D" d="M209.386,434.811c0,0.101,0.099,0.101,0.099,0.101h0.593c0.099,0,0.099-0.101,0.099-0.101
					v-3.361h0.89c0.1,0,0.1-0.099,0.1-0.099v-0.494c0-0.1,0-0.1-0.1-0.1h-2.571c-0.099,0-0.099,0.1-0.099,0.1v0.494
					c0,0.099,0,0.099,0.099,0.099h0.891V434.811z"/>
				<path id="Fill-36" fill="#D6000D" d="M216.309,434.811c0,0.101,0,0.101,0.099,0.101h0.495c0.098,0,0.098-0.101,0.098-0.101
					v-3.855c0-0.099,0-0.099-0.098-0.099h-0.396l-0.891,0.691v0.099v0.297c0,0.099,0.099,0.099,0.099,0.099l0.495-0.099v2.867
					H216.309z"/>
				<path id="Fill-38" fill="#D6000D" d="M219.177,433.823c0-0.298,0.198-0.495,0.594-0.594c0.396,0.099,0.593,0.396,0.593,0.594
					c0,0.296-0.296,0.593-0.593,0.593S219.177,434.219,219.177,433.823 M219.771,432.536c-0.396-0.099-0.495-0.296-0.495-0.593
					s0.198-0.494,0.495-0.494s0.593,0.197,0.593,0.494S220.167,432.438,219.771,432.536 M218.386,433.823
					c0,0.691,0.495,1.186,1.385,1.186s1.385-0.494,1.385-1.186c0-0.495-0.495-0.892-0.692-0.989l0,0
					c0.198-0.1,0.593-0.495,0.593-0.891c0-0.692-0.593-1.087-1.285-1.087s-1.286,0.395-1.286,1.087c0,0.494,0.396,0.791,0.594,0.891
					l0,0C218.98,432.932,218.386,433.328,218.386,433.823"/>
				<path id="Fill-40" fill="#D6000D" d="M222.936,433.427l1.187-1.385v1.385H222.936z M222.343,434.119h1.78v0.792
					c0,0.098,0.099,0.098,0.099,0.098h0.495c0.099,0,0.099-0.098,0.099-0.098v-0.792h0.494c0.099,0,0.099-0.098,0.099-0.098v-0.396
					c0-0.1,0-0.1-0.099-0.1h-0.494v-2.57c0-0.099-0.099-0.099-0.099-0.099h-0.297h-0.099l-2.077,2.57v0.494
					C222.243,434.021,222.243,434.119,222.343,434.119L222.343,434.119z"/>
				<path id="Fill-42" fill="#D6000D" d="M226.398,434.515c0.099,0.198,0.495,0.494,1.187,0.494c0.792,0,1.385-0.593,1.385-1.384
					s-0.495-1.286-1.385-1.286h-0.495v-0.791h1.287c0.099,0,0.099-0.099,0.099-0.099v-0.396c0-0.098,0-0.098-0.099-0.098h-1.88
					c-0.099,0-0.099,0.098-0.099,0.098v1.781c0,0.098,0.099,0.197,0.198,0.197h0.89c0.494,0,0.692,0.297,0.692,0.692
					s-0.296,0.692-0.692,0.692s-0.692-0.297-0.791-0.297h-0.099l-0.198,0.197C226.398,434.416,226.398,434.416,226.398,434.515"/>
				<path id="Fill-44" fill="#D6000D" d="M212.452,434.515c0-0.296,0.198-0.493,0.495-0.493c0.296,0,0.494,0.197,0.494,0.493
					s-0.198,0.494-0.494,0.494C212.65,435.009,212.452,434.713,212.452,434.515"/>
				<path id="Fill-46" fill="#D6000D" d="M212.65,432.932h0.395c0.396,0,0.792-0.295,0.792-0.791c0-0.494-0.297-0.79-0.792-0.79
					h-0.395V432.932z M213.045,433.525h-0.89c-0.099,0-0.099-0.099-0.099-0.197v-2.472c0-0.1,0.099-0.199,0.099-0.199h0.89
					c0.792,0,1.385,0.594,1.385,1.385C214.43,432.932,213.837,433.525,213.045,433.525L213.045,433.525z"/>
				<path id="Fill-48" fill="#FFFFFF" d="M305.323,372.105c-4.846,0-8.506-3.56-8.506-8.308V350.94c0-0.396,0.396-0.792,0.692-0.792
					h2.869c0.396,0,0.693,0.297,0.693,0.792v12.66c0,2.472,1.68,4.154,4.154,4.154c2.472,0,4.251-1.682,4.251-4.154v-12.561
					c0-0.396,0.298-0.792,0.693-0.792h2.868c0.396,0,0.692,0.396,0.692,0.792v12.857
					C313.829,368.645,310.17,372.105,305.323,372.105"/>
				<path id="Fill-50" fill="#FFFFFF" d="M329.358,371.809h-12.165c-0.396,0-0.692-0.296-0.692-0.791v-19.979
					c0-0.396,0.296-0.792,0.692-0.792h12.165c0.396,0,0.692,0.297,0.692,0.792v2.473c0,0.396-0.297,0.792-0.692,0.792h-8.703v4.648
					h7.22c0.396,0,0.691,0.396,0.691,0.792v2.473c0,0.395-0.296,0.791-0.691,0.791h-7.22v4.946h8.703
					c0.396,0,0.692,0.296,0.692,0.791v2.473C330.149,371.513,329.753,371.809,329.358,371.809"/>
				<path id="Fill-52" fill="#FFFFFF" d="M345.875,371.809H333.71c-0.396,0-0.693-0.296-0.693-0.791v-19.979
					c0-0.396,0.298-0.792,0.693-0.792h12.165c0.395,0,0.691,0.297,0.691,0.792v2.473c0,0.396-0.297,0.792-0.691,0.792h-8.704v4.648
					h7.22c0.396,0,0.693,0.396,0.693,0.792v2.473c0,0.395-0.297,0.791-0.693,0.791h-7.22v4.946h8.704
					c0.395,0,0.691,0.296,0.691,0.791v2.473C346.567,371.513,346.27,371.809,345.875,371.809"/>
				<path id="Fill-54" fill="#FFFFFF" d="M366.843,372.105h-0.396c-0.296,0-0.495-0.099-0.594-0.297l-12.067-13.45v12.66
					c0,0.396-0.296,0.791-0.69,0.791h-2.771c-0.396,0-0.692-0.395-0.692-0.791v-20.276c0-0.395,0.297-0.692,0.692-0.692h0.494
					c0.297,0,0.494,0.099,0.595,0.297l11.966,12.957v-12.265c0-0.396,0.298-0.792,0.694-0.792h2.769
					c0.396,0,0.691,0.396,0.691,0.792v20.375C367.534,371.809,367.239,372.105,366.843,372.105"/>
				<path id="Fill-56" fill="#FFFFFF" d="M371.492,356.578c-0.198,0-0.299-0.099-0.396-0.099l-0.793-0.594
					c-0.097-0.099-0.395-0.396,0-0.89c0.891-1.087,1.386-2.374,1.386-3.363c0-0.099,0-0.197,0-0.296
					c-0.298,0.099-0.495,0.198-0.791,0.198c-1.088,0-1.879-0.891-1.879-2.176c0-1.286,0.989-2.176,2.372-2.176
					c1.287,0,2.672,1.088,2.672,3.561c0,2.571-1.187,4.451-2.077,5.638C371.689,356.479,371.59,356.578,371.492,356.578"/>
				<path id="Fill-58" fill="#FFFFFF" d="M381.48,372.105c-3.955,0-5.934-1.78-6.724-2.374c-0.396-0.297-0.495-0.593-0.199-1.087
					l1.089-1.88c0.1-0.198,0.296-0.396,0.593-0.396c0.197,0,0.495,0,0.692,0.198c1.286,0.989,2.571,1.879,4.45,1.879
					c1.386,0,2.573-0.989,2.573-2.176c0-1.385-1.089-2.374-3.66-3.462c-2.472-0.989-5.737-2.769-5.737-6.726
					c0-2.868,2.177-6.033,6.923-6.033c3.166,0,5.639,1.682,6.132,2.078c0.199,0.099,0.298,0.296,0.298,0.494
					c0.099,0.296,0,0.495-0.099,0.692l-1.187,1.682c-0.1,0.198-0.297,0.396-0.594,0.495s-0.495,0.099-0.692-0.099l-0.199-0.099
					c-1.185-0.791-2.372-1.484-3.855-1.484c-1.683,0-2.474,0.99-2.474,1.979c0,1.286,0.988,2.274,3.461,3.264
					c3.167,1.286,6.33,3.166,6.33,7.022C388.601,368.941,386.129,372.105,381.48,372.105"/>
				<path id="Fill-60" fill="#FFFFFF" d="M310.072,401.381h-0.396c-0.296,0-0.495-0.098-0.592-0.296l-12.067-13.451v12.659
					c0,0.396-0.297,0.792-0.692,0.792h-2.77c-0.396,0-0.691-0.396-0.691-0.792v-20.374c0-0.396,0.296-0.692,0.691-0.692h0.494
					c0.297,0,0.496,0.099,0.594,0.297l11.87,12.857v-12.067c0-0.395,0.295-0.791,0.69-0.791h2.771c0.396,0,0.691,0.396,0.691,0.791
					v20.374C310.765,401.085,310.466,401.381,310.072,401.381"/>
				<path id="Fill-62" fill="#FFFFFF" d="M318.379,401.085h-2.77c-0.396,0-0.692-0.396-0.692-0.792v-19.979
					c0-0.395,0.396-0.791,0.692-0.791h2.77c0.396,0,0.692,0.396,0.692,0.791v20.079C319.17,400.789,318.776,401.085,318.379,401.085
					"/>
				<path id="Fill-64" fill="#FFFFFF" d="M332.028,401.381h-0.296c-0.197,0-0.494-0.098-0.692-0.394l0,0l-9.298-20.375
					c-0.098-0.198-0.098-0.495,0-0.692c0.099-0.197,0.396-0.297,0.594-0.297h3.065c0.297,0,0.595,0.198,0.693,0.396l5.735,12.857
					l5.737-12.857c0.1-0.198,0.297-0.396,0.692-0.396h3.066c0.297,0,0.495,0.1,0.594,0.297c0.099,0.198,0.099,0.494,0,0.692
					l-9.298,20.375C332.524,401.283,332.226,401.381,332.028,401.381"/>
				<path id="Fill-66" fill="#FFFFFF" d="M357.447,401.085h-12.166c-0.395,0-0.69-0.296-0.69-0.792v-19.979
					c0-0.395,0.296-0.791,0.69-0.791h12.166c0.396,0,0.692,0.296,0.692,0.791v2.474c0,0.395-0.296,0.791-0.692,0.791h-8.702v4.648
					h7.22c0.395,0,0.691,0.396,0.691,0.792v2.472c0,0.396-0.297,0.792-0.691,0.792h-7.22v4.946h8.702
					c0.396,0,0.692,0.296,0.692,0.79v2.473C358.139,400.789,357.843,401.085,357.447,401.085"/>
				<path id="Fill-68" fill="#FFFFFF" d="M366.052,389.216h4.746c1.485,0,2.771-1.384,2.771-2.967c0-1.483-1.285-2.77-2.771-2.77
					h-4.746V389.216z M376.734,401.085h-3.165c-0.396,0-0.593-0.296-0.593-0.396l-3.957-7.911h-3.066v7.516
					c0,0.396-0.396,0.792-0.691,0.792h-2.771c-0.395,0-0.691-0.296-0.691-0.792v-19.979c0-0.395,0.297-0.791,0.691-0.791h8.605
					c3.66,0,6.726,2.967,6.726,6.725c0,2.67-1.683,5.044-4.353,6.231l4.056,7.518c0.1,0.295,0.1,0.592,0,0.791
					C377.228,400.987,377.03,401.085,376.734,401.085L376.734,401.085z"/>
				<path id="Fill-70" fill="#FFFFFF" d="M387.218,401.381c-3.958,0-5.935-1.779-6.727-2.372c-0.395-0.299-0.494-0.595-0.197-1.089
					l1.087-1.88c0.099-0.197,0.297-0.395,0.595-0.395c0.197,0,0.493,0,0.691,0.198c1.287,0.989,2.572,1.88,4.451,1.88
					c1.384,0,2.572-0.99,2.572-2.177c0-1.385-1.09-2.374-3.66-3.461c-2.473-0.989-5.736-2.77-5.736-6.726
					c0-2.869,2.175-6.034,6.924-6.034c3.164,0,5.638,1.682,6.131,2.077c0.197,0.099,0.297,0.297,0.297,0.495
					c0.1,0.296,0,0.495-0.1,0.692l-1.087,1.682c-0.099,0.198-0.297,0.396-0.594,0.494c-0.296,0.099-0.494,0.099-0.691-0.099
					l-0.198-0.099c-1.188-0.792-2.375-1.484-3.857-1.484c-1.681,0-2.473,0.99-2.473,1.979c0,1.286,0.989,2.274,3.462,3.264
					c3.163,1.286,6.33,3.165,6.33,7.022C394.338,398.217,391.865,401.381,387.218,401.381"/>
				<path id="Fill-72" fill="#FFFFFF" d="M401.459,401.085h-2.77c-0.396,0-0.692-0.396-0.692-0.792v-19.979
					c0-0.395,0.297-0.791,0.692-0.791h2.77c0.396,0,0.692,0.396,0.692,0.791v20.079
					C402.152,400.789,401.855,401.085,401.459,401.085"/>
				<path id="Fill-74" fill="#FFFFFF" d="M413.13,401.085h-2.77c-0.396,0-0.692-0.396-0.692-0.792v-16.813h-4.45
					c-0.396,0-0.693-0.296-0.693-0.791v-2.472c0-0.396,0.298-0.792,0.693-0.792h13.055c0.396,0,0.693,0.297,0.693,0.792v2.472
					c0,0.396-0.298,0.791-0.693,0.791h-4.45v16.813C413.922,400.789,413.526,401.085,413.13,401.085"/>
				<path id="Fill-76" fill="#FFFFFF" d="M431.131,401.085h-2.771c-0.395,0-0.69-0.296-0.69-0.792V390.7l-6.824-10.088
					c-0.199-0.297-0.199-0.495,0-0.792c0.099-0.198,0.394-0.396,0.691-0.396h3.065c0.198,0,0.495,0.099,0.595,0.297l4.647,6.725
					l4.649-6.725c0.198-0.198,0.395-0.297,0.593-0.297h3.067c0.295,0,0.492,0.099,0.691,0.396c0.1,0.198,0.1,0.494,0,0.792
					l-6.923,10.088v9.593C431.923,400.789,431.527,401.085,431.131,401.085"/>
				<path id="Fill-78" fill="#FFFFFF" d="M280.696,401.381c-4.846,0-8.505-3.561-8.505-8.208v-12.858
					c0-0.395,0.296-0.692,0.692-0.692h2.869c0.395,0,0.692,0.297,0.692,0.692v12.661c0,2.571,1.681,4.253,4.252,4.253
					c2.474,0,4.254-1.781,4.254-4.253v-12.661c0-0.395,0.295-0.692,0.691-0.692h2.867c0.396,0,0.693,0.297,0.693,0.692v12.858
					C289.202,397.82,285.543,401.381,280.696,401.381"/>
				<path id="Fill-80" fill="#FFFFFF" d="M275.06,423.834V417.7h4.451c1.68,0,2.966,1.286,2.966,2.968
					c0,1.78-0.989,3.066-2.966,3.066h-4.451V423.834z M275.157,415.229v-6.033h3.66c1.78,0,3.066,1.088,3.066,2.967
					c0,1.78-1.188,3.066-3.066,3.066H275.157z M282.279,416.315c1.583-0.791,2.771-2.373,2.771-4.549
					c0-2.967-2.474-5.242-5.836-5.242h-6.33c-0.297,0-0.495,0.297-0.495,0.495v18.891c0,0.298,0.198,0.494,0.495,0.494h6.627
					c3.56,0,6.131-2.274,6.131-5.538C285.543,418.492,283.96,417.009,282.279,416.315L282.279,416.315z"/>
				<path id="Fill-82" fill="#FFFFFF" d="M287.818,426.01c0,0.296,0.198,0.494,0.495,0.494h11.275c0.297,0,0.495-0.296,0.495-0.494
					v-1.583c0-0.297-0.198-0.496-0.495-0.496h-8.901v-6.23h7.518c0.295,0,0.494-0.196,0.494-0.493v-1.583
					c0-0.297-0.297-0.495-0.494-0.495h-7.518v-5.835h8.901c0.297,0,0.495-0.296,0.495-0.494v-1.583c0-0.297-0.198-0.494-0.495-0.494
					h-11.275c-0.297,0-0.495,0.297-0.495,0.494V426.01z"/>
				<path id="Fill-84" fill="#FFFFFF" d="M303.247,426.01c0,0.296,0.198,0.494,0.495,0.494h10.087c0.297,0,0.495-0.296,0.495-0.494
					v-1.583c0-0.297-0.198-0.496-0.495-0.496h-7.616v-16.813c0-0.297-0.296-0.494-0.494-0.494h-1.878
					c-0.297,0-0.495,0.296-0.495,0.494v18.892H303.247z"/>
				<path id="Fill-86" fill="#FFFFFF" d="M316.5,426.01c0,0.296,0.197,0.494,0.495,0.494h1.879c0.296,0,0.494-0.296,0.494-0.494
					v-7.518h7.517c0.298,0,0.495-0.298,0.495-0.494v-1.583c0-0.297-0.298-0.494-0.495-0.494h-7.517v-6.627h8.901
					c0.296,0,0.494-0.296,0.494-0.494v-1.583c0-0.297-0.198-0.494-0.494-0.494h-11.274c-0.298,0-0.495,0.297-0.495,0.494V426.01z"/>
				<path id="Fill-88" fill="#FFFFFF" d="M333.612,419.68l3.461-7.813h0.099l3.462,7.813H333.612z M328.369,426.504h1.779
					c0.297,0,0.595-0.198,0.693-0.396l1.682-3.957h9.198l1.778,3.957c0.102,0.296,0.298,0.396,0.693,0.396h1.78
					c0.396,0,0.692-0.396,0.495-0.792l-8.605-19.188c-0.099-0.198-0.297-0.296-0.495-0.296h-0.296c-0.099,0-0.396,0.098-0.495,0.296
					l-8.703,19.188C327.676,426.108,327.874,426.504,328.369,426.504L328.369,426.504z"/>
				<path id="Fill-90" fill="#FFFFFF" d="M348.446,424.525c0.495,0.395,2.671,2.274,6.034,2.274c3.659,0,6.329-2.472,6.329-5.439
					c0-3.462-2.77-5.045-6.033-6.429c-2.372-0.989-3.56-1.979-3.56-3.561c0-1.088,0.791-2.571,3.164-2.571
					c1.682,0,2.67,0.692,3.857,1.384c0.396,0.298,0.791,0.1,0.99-0.296l0.69-1.088c0.299-0.396,0.1-0.791-0.197-0.989
					c-0.296-0.197-2.373-1.681-5.241-1.681c-4.451,0-6.23,3.065-6.23,5.241c0,3.264,2.275,4.847,5.143,6.033
					c2.769,1.187,4.253,2.275,4.253,3.956c0,1.484-1.286,2.671-3.165,2.671c-2.176,0-3.166-0.891-4.55-1.979
					c-0.297-0.296-0.692-0.098-0.989,0.197l-0.691,1.188C347.95,424.13,348.249,424.328,348.446,424.525"/>
				<path id="Fill-92" fill="#FFFFFF" d="M367.041,426.01c0,0.296,0.297,0.494,0.493,0.494h1.879c0.299,0,0.495-0.296,0.495-0.494
					v-16.814h4.648c0.298,0,0.494-0.297,0.494-0.495v-1.582c0-0.297-0.196-0.494-0.494-0.494h-12.166
					c-0.295,0-0.493,0.296-0.493,0.494v1.582c0,0.298,0.198,0.495,0.493,0.495h4.65V426.01L367.041,426.01z"/>
				<path id="Fill-94" fill="#FFFFFF" d="M294.444,361.029c0-6.231-4.945-11.177-11.077-11.177c-6.132,0-11.078,5.044-11.078,11.177
					c0,6.132,4.945,11.176,11.078,11.176c0.989,0,1.879-0.1,2.769-0.396l1.188,1.781c0.099,0.296,0.494,0.594,0.792,0.594h4.054
					c0.297,0,0.396-0.198,0.297-0.594l-2.473-3.561C292.664,368.051,294.444,364.787,294.444,361.029 M289.895,361.029
					c0,2.175-0.989,4.055-2.571,5.34l-0.594-0.791c-0.098-0.296-0.494-0.593-0.79-0.593h-4.056c-0.297,0-0.396,0.198-0.297,0.593
					l1.484,2.176c-3.56-0.099-6.33-3.066-6.33-6.626c0-3.659,2.966-6.626,6.528-6.626
					C287.027,354.402,289.895,357.369,289.895,361.029"/>
			</g>
		</g>
	</g>
</g>
</svg>
